<svg width="96" height="96" xmlns="http://www.w3.org/2000/svg" xmlns:xlink="http://www.w3.org/1999/xlink" xml:space="preserve" overflow="hidden"><defs><clipPath id="clip0"><rect x="0" y="0" width="96" height="96"/></clipPath></defs><g clip-path="url(#clip0)"><path d="M48 10.09C27.0182 10.085 10.0049 27.0901 9.99994 48.0719 9.99807 55.895 12.4113 63.5279 16.91 69.928L16.91 69.928 16.915 69.928C28.9758 87.1031 52.6762 91.2491 69.8513 79.1883 87.0264 67.1275 91.1723 43.4271 79.1115 26.252 71.9943 16.1168 60.3846 10.0857 48 10.09ZM39.917 62.09 31.834 48.09 39.917 34.09 56.083 34.09 64.166 48.09 56.083 62.09ZM66.475 48.09 66.467 48.077 77.967 28.164C84.6671 38.2164 85.8693 50.9621 81.167 62.09L58.392 62.09ZM76.688 26.373 65.312 46.073 57.53 32.6 57.542 32.593 45.75 12.168C46.495 12.121 47.244 12.09 48 12.09 59.2727 12.0916 69.8925 17.3788 76.688 26.373ZM43.56 12.373 54.943 32.09 15.764 32.09C21.1456 21.2801 31.5788 13.8797 43.56 12.374ZM12 48.09C11.9949 43.2804 12.9587 38.519 14.834 34.09L37.608 34.09 29.914 47.417 29.908 47.417 18.024 68C14.089 62.1062 11.9924 55.1767 12 48.09ZM19.3 69.79 30.677 50.084 38.763 64.09 38.773 64.09 50.273 84.011C49.52 84.058 48.764 84.09 47.999 84.09 36.7196 84.0883 26.0944 78.7944 19.3 69.791ZM52.464 83.8 41.083 64.09 80.236 64.09C74.8577 74.8913 64.4352 82.2883 52.464 83.8Z" fill="#FFFFFF"/></g></svg>